<svg width="200" height="35" fill="none" xmlns="http://www.w3.org/2000/svg"><g clip-path="url(#clip0)"><path d="M46.425 5.585v2.958h6.249v3.304h-6.25v5.527h-4.092V2.291h10.87v3.294h-6.777zm18.217 7.791h-3.16v3.998h-4.093V2.291h7.896a10.52 10.52 0 013.016.398c.715.222 1.32.703 1.689 1.346.423.88.615 1.852.56 2.825.017.784-.028 1.568-.135 2.345a2.405 2.405 0 01-.757 1.387 4.312 4.312 0 01-2.01.908v.163a3.14 3.14 0 012.072.724 2.546 2.546 0 01.746 1.948v3.06h-4.145v-2.132c0-1.264-.56-1.887-1.678-1.887zm-3.16-3.508h3.16a2.49 2.49 0 001.161-.204.938.938 0 00.446-.663c.069-.493.093-.991.072-1.488a2.015 2.015 0 00-.342-1.367 1.93 1.93 0 00-1.357-.357h-3.14v4.08zM79.15 5.585V8.34h6.54v2.794h-6.54v2.937h7.12v3.304H75.066V2.291h11.057v3.294H79.15zm15.897 0V8.34h6.549v2.794h-6.55v2.937h7.12v3.304H90.964V2.291h11.057v3.294h-6.974zm11.689 11.789V2.291h7.761a9.086 9.086 0 013.534.571 3.858 3.858 0 012 1.866 7.72 7.72 0 01.643 3.417v3.192a9.505 9.505 0 01-.529 3.457 3.661 3.661 0 01-1.751 1.968 7.134 7.134 0 01-3.337.653l-8.321-.04zm4.083-11.585v8.087h3.575c1.378 0 2.072-.867 2.072-2.58V8.145a3.843 3.843 0 00-.217-1.469 1.216 1.216 0 00-.653-.693 2.977 2.977 0 00-1.202-.194h-3.575zm21.015 11.667c-.993.01-1.985-.069-2.963-.235a5.963 5.963 0 01-2.177-.826 3.905 3.905 0 01-1.44-1.693 6.6 6.6 0 01-.508-2.784V7.696a6.6 6.6 0 01.508-2.784 3.903 3.903 0 011.44-1.734 5.963 5.963 0 012.177-.826 19.694 19.694 0 015.927 0 5.94 5.94 0 012.187.826 3.905 3.905 0 011.44 1.693c.364.883.537 1.832.508 2.784v4.263a6.762 6.762 0 01-.508 2.784 3.903 3.903 0 01-1.44 1.734 5.94 5.94 0 01-2.187.826c-.979.166-1.971.245-2.964.235v-.041zm0-3.457a7.466 7.466 0 001.762-.164 1.338 1.338 0 00.85-.683 3.662 3.662 0 00.269-1.632V8.124a5.011 5.011 0 00-.145-1.336 1.398 1.398 0 00-.487-.724 1.82 1.82 0 00-.85-.326c-.464-.055-.931-.08-1.399-.071a7.308 7.308 0 00-1.741.153 1.328 1.328 0 00-.839.673 4.006 4.006 0 00-.3 1.631v3.396a4.006 4.006 0 00.3 1.632 1.316 1.316 0 00.839.683c.572.125 1.156.18 1.741.164zm15.171-8.189l.415 11.564h-4.093V2.291h6.476l2.923 9.464h.155l2.777-9.464h6.632v15.083h-4.083l.415-11.565h-.145l-3.886 11.565h-3.534L147.13 5.81h-.125z" fill="#000"/><path d="M185.171 14.233v3.141h-12.114v-3.14a9.275 9.275 0 01.207-2.173c.117-.502.38-.959.757-1.316.458-.39.989-.688 1.564-.877.942-.313 1.9-.575 2.871-.785 1.036-.245 1.741-.418 2.072-.52a.955.955 0 00.601-.459 2.85 2.85 0 00.156-1.132 2.433 2.433 0 00-.187-1.101.938.938 0 00-.632-.46 5.973 5.973 0 00-1.326-.111 6.437 6.437 0 00-1.42.112.823.823 0 00-.58.459 3.491 3.491 0 00-.166 1.183v.744h-3.917v-.744a6.687 6.687 0 01.394-2.479 3.152 3.152 0 011.14-1.488 4.94 4.94 0 011.855-.725 15.187 15.187 0 012.673-.203c1.115-.03 2.229.08 3.316.326a3.35 3.35 0 012.021 1.366 5.32 5.32 0 01.725 3.06 8.533 8.533 0 01-.207 2.04 2.84 2.84 0 01-.684 1.295 3.815 3.815 0 01-1.233.826c-.674.273-1.367.502-2.073.683-.456.122-1.036.255-1.761.408-.497.09-.986.22-1.461.387a1.03 1.03 0 00-.581.52 2.595 2.595 0 00-.186 1.122l8.176.041zm13.555-11.942v9.178H200v2.927h-1.306v2.978h-3.875v-2.978h-8.021v-4.303l5.948-7.802h5.98zm-3.876 9.178V5.351h-.145l-4.663 6.118h4.808z" fill="#72BF44"/><path fill-rule="evenodd" clip-rule="evenodd" d="M11.865 10.137v4.405h16.228v8.832H11.865v10.33A19.06 19.06 0 0015.772 35c7.907-1.611 15.316-8.485 15.554-20.835l.083-4.08-19.544.052z" fill="#2D7D2F"/><path d="M31.42 10.137l.155-9.525A202.08 202.08 0 0015.793 0C10.48 0 5.216.204 0 .612l.093 7.445.156 6.118s0 5.66 1.979 9.709c1.85 4.355 5.297 7.865 9.658 9.831v-10.33h16.207v-8.843H11.865v-4.405H31.42z" fill="#72BF44"/><path d="M44.558 33.07c1.315 0 1.997-.874 1.997-2.192v-1.845c0-1.318-.67-2.205-1.96-2.205-.706 0-1.304.264-1.698.73h-.024V24H42v8.975h.765l.048-.635h.024c.418.48 1.016.73 1.721.73zm-1.685-4.756a1.836 1.836 0 011.482-.743c.897 0 1.327.563 1.327 1.474v1.833c0 .923-.442 1.474-1.339 1.474-.705 0-1.183-.324-1.47-.767v-3.271zm9.9-1.378h-.92l-1.65 4.96h-.024l-1.9-4.96h-.981l2.462 5.943-.107.324c-.251.742-.634 1.054-1.363 1.162l.072.635c1.064-.06 1.661-.6 2.056-1.666l2.355-6.398zm4.15-2.648v8.687h.98v-3.966h3.3v-.815h-3.3V25.15h3.838v-.862h-4.818zm8.802 2.72a1.671 1.671 0 00-.729-.168c-.693 0-1.255.395-1.59 1.246h-.024l-.035-1.15h-.766v6.039h.873v-3.463c.096-1.078.61-1.857 1.53-1.857.227 0 .43.048.61.143l.132-.79zm4.997 2.947v-.958c0-1.223-.79-2.17-2.164-2.17-1.399 0-2.188.912-2.188 2.146v1.953c0 1.258.79 2.157 2.224 2.157 1.112 0 1.793-.515 2.14-1.51l-.634-.252c-.31.755-.741 1.067-1.435 1.067-.908 0-1.422-.551-1.422-1.486v-.947h3.479zm-3.48-1.03c0-.839.431-1.414 1.34-1.414.86 0 1.363.54 1.363 1.402v.467h-2.702v-.455zm8.92 1.03v-.958c0-1.223-.789-2.17-2.164-2.17-1.398 0-2.188.912-2.188 2.146v1.953c0 1.258.79 2.157 2.224 2.157 1.112 0 1.793-.515 2.14-1.51l-.634-.252c-.31.755-.74 1.067-1.434 1.067-.909 0-1.423-.551-1.423-1.486v-.947h3.48zm-3.479-1.03c0-.839.43-1.414 1.34-1.414.86 0 1.362.54 1.362 1.402v.467h-2.702v-.455zm6.565-2.109c-1.316 0-1.997.887-1.997 2.205v1.857c0 1.318.681 2.205 1.96 2.205.718 0 1.328-.264 1.746-.743h.024l.048.635h.777V24h-.873v3.499h-.024c-.406-.443-.992-.683-1.662-.683zm1.685 4.793a1.804 1.804 0 01-1.482.743c-.897 0-1.327-.551-1.327-1.462v-1.857c0-.935.442-1.486 1.339-1.486a1.77 1.77 0 011.47.73v3.332zm6.921-2.636c0-1.246-.801-2.145-2.284-2.145-1.482 0-2.283.91-2.283 2.145v1.989c0 1.246.8 2.12 2.283 2.12 1.47 0 2.284-.886 2.284-2.12v-1.99zm-3.694.024c0-.887.43-1.474 1.41-1.474.969 0 1.411.587 1.411 1.474v1.929c0 .887-.442 1.462-1.41 1.462-.97 0-1.411-.575-1.411-1.462v-1.93zm9.258.036c0-1.019.526-1.45 1.232-1.45.813 0 1.171.551 1.171 1.45v3.942h.873v-3.942c0-1.474-.693-2.205-1.853-2.205-.741 0-1.35.371-1.674 1.006h-.024c-.263-.695-.813-1.006-1.506-1.006-.622 0-1.195.3-1.566.85h-.024v-.742h-.777v6.039h.873v-4.482c.239-.527.729-.91 1.29-.91.658 0 1.113.383 1.113 1.45v3.942h.872v-3.942zm7.846-4.745v8.687h.98v-3.966h3.3v-.815h-3.3V25.15h3.838v-.862h-4.818zm6.221 2.648v6.039h.873v-6.04h-.873zm.012-2.648v1.222h.849v-1.222h-.849zm3.509 4.038a1.818 1.818 0 011.494-.755c.885 0 1.315.539 1.315 1.474v3.93h.873v-3.942c0-1.33-.67-2.205-1.961-2.205-.729 0-1.351.276-1.769.779h-.024l-.024-.671h-.777v6.039h.873v-4.65zm5.628.131c.347-.587.801-.934 1.387-.934.741 0 1.112.455 1.112 1.354v.659h-.538c-2.033 0-2.69.827-2.69 1.941 0 .97.621 1.594 1.685 1.594.622 0 1.196-.216 1.638-.635.144.347.478.61.992.61.168 0 .323-.035.455-.071v-.527h-.168c-.334 0-.502-.204-.502-.54v-3.031c0-1.174-.55-2.061-1.877-2.061-.944 0-1.578.527-2.032 1.294l.538.348zm1.124 3.967c-.634 0-1.004-.3-1.004-.995 0-.767.418-1.258 1.841-1.258h.538v1.618c-.359.42-.778.635-1.375.635zm4.806-4.098a1.818 1.818 0 011.494-.755c.885 0 1.315.539 1.315 1.474v3.93h.873v-3.942c0-1.33-.67-2.205-1.961-2.205-.729 0-1.351.276-1.769.779h-.024l-.024-.671h-.777v6.039h.873v-4.65zm9.179-.18c-.359-.815-1.076-1.318-2.021-1.318-1.422 0-2.187.922-2.187 2.145v1.965c0 1.21.765 2.145 2.187 2.145 1.064 0 1.734-.563 2.057-1.414l-.634-.252c-.275.66-.705.959-1.363.959-.873 0-1.375-.54-1.375-1.474v-1.893c0-.959.49-1.462 1.375-1.462.61 0 1.1.287 1.351.887l.61-.288zm5.245 1.809v-.958c0-1.223-.789-2.17-2.164-2.17-1.399 0-2.188.912-2.188 2.146v1.953c0 1.258.789 2.157 2.224 2.157 1.112 0 1.793-.515 2.14-1.51l-.634-.252c-.31.755-.741 1.067-1.434 1.067-.909 0-1.423-.551-1.423-1.486v-.947h3.479zm-3.479-1.03c0-.839.431-1.414 1.339-1.414.861 0 1.363.54 1.363 1.402v.467h-2.702v-.455z" fill="#777"/></g><defs><clipPath id="clip0"><path fill="#fff" d="M0 0h200v35H0z"/></clipPath></defs></svg>