<svg width="20" height="20" fill="none" xmlns="http://www.w3.org/2000/svg"><path fill-rule="evenodd" clip-rule="evenodd" d="M.949 1.898h1.33l.01.043 2.79 10.383.016.038a.95.95 0 00.882.598h10.999c.187.001.43-.053.587-.156a.948.948 0 00.353-.426l.02-.049 2.015-8.06v-.003a.957.957 0 00-.117-.84l-.01-.015-.012-.014a.956.956 0 00-.762-.38H4.65L3.859.648V.646A.948.948 0 002.96 0H.95a.949.949 0 000 1.898zm17.527 2.514H4.4l1.921 7.153H16.69l1.787-7.152zM7.987 15.474a1.565 1.565 0 100 3.13 1.565 1.565 0 000-3.13zm-2.093-.528a2.96 2.96 0 114.187 4.187 2.96 2.96 0 01-4.187-4.187zm9.134.528a1.565 1.565 0 100 3.13 1.565 1.565 0 000-3.13zm-2.094-.528a2.96 2.96 0 114.187 4.187 2.96 2.96 0 01-4.187-4.187z" fill="#000"/></svg>